<?xml version="1.0" encoding="UTF-8" standalone="no"?>
<!DOCTYPE svg PUBLIC "-//W3C//DTD SVG 1.1//EN" "http://www.w3.org/Graphics/SVG/1.1/DTD/svg11.dtd">
<svg xmlns="http://www.w3.org/2000/svg" version="1.1" viewBox="0 0 236 306">
<g stroke-width="2.0" fill="none" stroke-linecap="butt">
<path stroke="#b3687c" stroke-opacity="0.996" vector-effect="non-scaling-stroke" d="
  M 126.50 35.04
  Q 126.23 35.15 126.11 35.33
  C 125.92 35.60 125.71 35.79 125.57 35.82
  L 114.54 38.50"
/>
<path stroke="#b3687c" stroke-opacity="0.996" vector-effect="non-scaling-stroke" d="
  M 128.96 35.50
  Q 120.37 38.57 114.46 45.50"
/>
<path stroke="#fc7c4d" stroke-opacity="0.996" vector-effect="non-scaling-stroke" d="
  M 112.00 49.46
  Q 110.36 52.33 110.75 54.00
  Q 113.42 65.40 123.21 71.75"
/>
<path stroke="#f90101" stroke-opacity="0.992" vector-effect="non-scaling-stroke" d="
  M 124.25 72.96
  Q 123.35 72.57 123.00 73.21"
/>
<path stroke="#fc7c4d" stroke-opacity="0.996" vector-effect="non-scaling-stroke" d="
  M 122.25 72.96
  Q 122.42 72.26 121.90 71.86
  Q 113.96 65.68 107.56 57.94
  Q 104.95 54.78 104.46 49.50"
/>
<path stroke="#b6e3c8" vector-effect="non-scaling-stroke" d="
  M 123.25 49.54
  L 114.25 49.46"
/>
<path stroke="#b96765" stroke-opacity="0.996" vector-effect="non-scaling-stroke" d="
  M 125.00 73.04
  Q 125.37 73.76 126.06 74.20
  Q 135.73 80.41 144.96 87.28
  Q 150.95 91.74 155.75 97.46"
/>
<path stroke="#eb0101" stroke-opacity="0.937" vector-effect="non-scaling-stroke" d="
  M 155.75 97.46
  Q 153.56 98.13 151.31 98.56
  Q 149.46 98.92 148.40 98.30
  C 148.08 98.11 147.77 98.02 147.51 98.02
  L 141.46 98.00"
/>
<path stroke="#b96765" stroke-opacity="0.996" vector-effect="non-scaling-stroke" d="
  M 141.46 98.00
  Q 135.64 83.35 123.29 73.50"
/>
<path stroke="#a86d6b" stroke-opacity="0.941" vector-effect="non-scaling-stroke" d="
  M 160.96 106.50
  Q 160.33 106.29 160.24 105.73
  Q 160.10 104.82 160.09 104.80
  Q 158.61 100.73 155.75 97.46"
/>
<path stroke="#eb0101" stroke-opacity="0.937" vector-effect="non-scaling-stroke" d="
  M 160.96 108.50
  Q 160.19 107.23 159.68 108.28
  C 159.56 108.52 159.65 108.84 159.90 109.06
  Q 160.75 109.83 159.68 110.15
  Q 159.33 110.26 158.81 110.17
  Q 157.56 109.96 156.30 109.94
  C 156.15 109.94 156.03 109.84 156.02 109.71
  L 155.99 109.47
  C 155.96 109.22 155.77 109.02 155.53 109.01
  L 146.07 108.50
  C 145.82 108.49 145.51 108.34 145.22 108.08
  Q 144.37 107.34 143.27 107.80
  Q 142.57 108.09 142.54 107.00"
/>
<path stroke="#a86d6b" stroke-opacity="0.941" vector-effect="non-scaling-stroke" d="
  M 141.46 98.00
  Q 142.52 102.44 142.54 107.00"
/>
<path stroke="#b96765" stroke-opacity="0.996" vector-effect="non-scaling-stroke" d="
  M 142.54 107.00
  L 141.75 111.54"
/>
<path stroke="#7ecbb2" vector-effect="non-scaling-stroke" d="
  M 141.75 111.54
  Q 140.87 111.57 140.46 110.95
  C 140.28 110.67 140.01 110.50 139.75 110.50
  L 123.25 110.46"
/>
<path stroke="#bd664f" stroke-opacity="0.996" vector-effect="non-scaling-stroke" d="
  M 160.96 112.50
  Q 158.54 119.52 151.94 126.44
  Q 146.59 132.03 144.94 133.44
  Q 129.06 146.93 113.19 160.44
  Q 104.67 167.68 100.25 171.96"
/>
<path stroke="#be4a66" stroke-opacity="0.996" vector-effect="non-scaling-stroke" d="
  M 99.96 172.25
  Q 91.77 179.07 84.43 186.79
  Q 75.31 196.38 75.27 196.42
  Q 54.31 217.66 33.25 238.79"
/>
<path stroke="#b61416" stroke-opacity="0.996" vector-effect="non-scaling-stroke" d="
  M 33.25 238.79
  Q 32.91 238.62 32.96 238.25"
/>
<path stroke="#be4a66" stroke-opacity="0.996" vector-effect="non-scaling-stroke" d="
  M 32.96 238.25
  Q 58.85 211.06 80.00 190.50
  Q 90.95 179.86 98.00 172.04"
/>
<path stroke="#bd664f" stroke-opacity="0.996" vector-effect="non-scaling-stroke" d="
  M 99.96 169.75
  Q 99.99 169.88 100.08 169.95
  C 100.16 170.00 100.28 169.97 100.38 169.87
  Q 119.49 150.79 134.00 130.00
  Q 139.65 121.90 141.75 111.54"
/>
<path stroke="#7b5d7a" vector-effect="non-scaling-stroke" d="
  M 32.96 238.25
  Q 23.48 247.88 14.13 257.63
  Q 10.87 261.03 14.12 257.86
  Q 23.78 248.42 33.25 238.79"
/>
</g>
<path fill="#6dcff6" d="
  M 126.50 35.04
  Q 126.23 35.15 126.11 35.33
  C 125.92 35.60 125.71 35.79 125.57 35.82
  L 114.54 38.50
  L 114.50 35.56
  C 114.49 35.28 114.75 35.05 115.06 35.05
  L 126.50 35.04
  Z"
/>
<path fill="#f90101" fill-opacity="0.992" d="
  M 126.50 35.04
  Q 127.80 34.92 128.96 35.50
  Q 120.37 38.57 114.46 45.50
  Q 112.42 46.98 112.00 49.46
  Q 110.36 52.33 110.75 54.00
  Q 113.42 65.40 123.21 71.75
  Q 123.43 72.58 124.25 72.96
  Q 123.35 72.57 123.00 73.21
  L 122.25 72.96
  Q 122.42 72.26 121.90 71.86
  Q 113.96 65.68 107.56 57.94
  Q 104.95 54.78 104.46 49.50
  Q 104.62 44.42 108.81 41.56
  Q 109.94 40.79 114.54 38.50
  L 125.57 35.82
  C 125.71 35.79 125.92 35.60 126.11 35.33
  Q 126.23 35.15 126.50 35.04
  Z"
/>
<path fill="#6dcff6" d="
  M 128.96 35.50
  L 128.76 48.99
  C 128.75 49.27 128.53 49.50 128.26 49.50
  L 123.25 49.54
  L 114.25 49.46
  L 114.46 45.50
  Q 120.37 38.57 128.96 35.50
  Z"
/>
<path fill="#fff799" d="
  M 104.46 49.50
  Q 104.95 54.78 107.56 57.94
  Q 113.96 65.68 121.90 71.86
  Q 122.42 72.26 122.25 72.96
  L 100.58 73.00
  C 100.26 73.00 100.00 72.74 100.00 72.42
  L 100.06 50.07
  C 100.06 49.78 100.28 49.55 100.56 49.54
  L 104.46 49.50
  Z"
/>
<path fill="#fff799" d="
  M 112.00 49.46
  L 114.25 49.46
  L 123.25 49.54
  L 123.21 71.75
  Q 113.42 65.40 110.75 54.00
  Q 110.36 52.33 112.00 49.46
  Z"
/>
<path fill="#f90101" fill-opacity="0.992" d="
  M 124.25 72.96
  L 125.00 73.04
  Q 125.37 73.76 126.06 74.20
  Q 135.73 80.41 144.96 87.28
  Q 150.95 91.74 155.75 97.46
  Q 153.56 98.13 151.31 98.56
  Q 149.46 98.92 148.40 98.30
  C 148.08 98.11 147.77 98.02 147.51 98.02
  L 141.46 98.00
  Q 135.64 83.35 123.29 73.50
  Q 123.23 73.27 123.00 73.21
  Q 123.35 72.57 124.25 72.96
  Z"
/>
<path fill="#7accc8" d="
  M 125.00 73.04
  L 160.57 73.18
  C 160.84 73.18 161.07 73.41 161.08 73.69
  Q 161.57 90.10 160.96 106.50
  Q 160.33 106.29 160.24 105.73
  Q 160.10 104.82 160.09 104.80
  Q 158.61 100.73 155.75 97.46
  Q 150.95 91.74 144.96 87.28
  Q 135.73 80.41 126.06 74.20
  Q 125.37 73.76 125.00 73.04
  Z"
/>
<path fill="#7accc8" d="
  M 123.29 73.50
  Q 135.64 83.35 141.46 98.00
  Q 142.52 102.44 142.54 107.00
  L 141.75 111.54
  Q 140.87 111.57 140.46 110.95
  C 140.28 110.67 140.01 110.50 139.75 110.50
  L 123.25 110.46
  L 123.29 73.50
  Z"
/>
<path fill="#dc0101" fill-opacity="0.878" d="
  M 155.75 97.46
  Q 158.61 100.73 160.09 104.80
  Q 160.10 104.82 160.24 105.73
  Q 160.33 106.29 160.96 106.50
  L 160.96 108.50
  Q 160.19 107.23 159.68 108.28
  C 159.56 108.52 159.65 108.84 159.90 109.06
  Q 160.75 109.83 159.68 110.15
  Q 159.33 110.26 158.81 110.17
  Q 157.56 109.96 156.30 109.94
  C 156.15 109.94 156.03 109.84 156.02 109.71
  L 155.99 109.47
  C 155.96 109.22 155.77 109.02 155.53 109.01
  L 146.07 108.50
  C 145.82 108.49 145.51 108.34 145.22 108.08
  Q 144.37 107.34 143.27 107.80
  Q 142.57 108.09 142.54 107.00
  Q 142.52 102.44 141.46 98.00
  L 147.50 98.00
  C 147.77 98.01 148.08 98.11 148.40 98.30
  Q 149.46 98.92 151.31 98.56
  Q 153.56 98.13 155.75 97.46
  Z"
/>
<path fill="#f90101" fill-opacity="0.992" d="
  M 142.54 107.00
  Q 142.57 108.09 143.27 107.80
  Q 144.37 107.34 145.22 108.08
  C 145.51 108.34 145.82 108.49 146.07 108.50
  L 155.53 109.01
  C 155.77 109.02 155.96 109.22 155.99 109.47
  L 156.02 109.71
  C 156.03 109.84 156.15 109.94 156.30 109.94
  Q 157.56 109.96 158.81 110.17
  Q 159.33 110.26 159.68 110.15
  Q 160.75 109.83 159.90 109.06
  C 159.65 108.84 159.56 108.52 159.68 108.28
  Q 160.19 107.23 160.96 108.50
  L 160.96 112.50
  Q 158.54 119.52 151.94 126.44
  Q 146.59 132.03 144.94 133.44
  Q 129.06 146.93 113.19 160.44
  Q 104.67 167.68 100.25 171.96
  Q 100.02 172.02 99.96 172.25
  Q 91.77 179.07 84.43 186.79
  Q 75.31 196.38 75.27 196.42
  Q 54.31 217.66 33.25 238.79
  Q 32.91 238.62 32.96 238.25
  Q 58.85 211.06 80.00 190.50
  Q 90.95 179.86 98.00 172.04
  Q 99.60 171.46 99.96 169.75
  Q 99.99 169.88 100.08 169.95
  C 100.16 170.00 100.28 169.97 100.38 169.87
  Q 119.49 150.79 134.00 130.00
  Q 139.65 121.90 141.75 111.54
  L 142.54 107.00
  Z"
/>
<path fill="#82ca9c" d="
  M 123.25 110.46
  L 139.75 110.50
  C 140.01 110.50 140.28 110.67 140.46 110.95
  Q 140.87 111.57 141.75 111.54
  Q 139.65 121.90 134.00 130.00
  Q 119.49 150.79 100.38 169.87
  C 100.28 169.97 100.16 170.00 100.08 169.95
  Q 99.99 169.88 99.96 169.75
  L 100.00 111.34
  C 100.00 111.01 100.28 110.74 100.62 110.74
  L 123.25 110.46
  Z"
/>
<path fill="#82ca9c" d="
  M 160.96 112.50
  L 161.24 171.13
  C 161.25 171.61 160.85 172.00 160.36 172.00
  L 100.25 171.96
  Q 104.67 167.68 113.19 160.44
  Q 129.06 146.93 144.94 133.44
  Q 146.59 132.03 151.94 126.44
  Q 158.54 119.52 160.96 112.50
  Z"
/>
<path fill="#000000" d="
  M 16.31 156.95
  L 29.02 156.99
  C 29.39 157.00 29.70 157.25 29.78 157.61
  Q 30.39 160.72 28.45 160.57
  Q 27.62 160.51 27.54 160.51
  Q 19.86 160.63 12.18 160.33
  C 11.90 160.32 11.68 160.09 11.67 159.81
  Q 11.37 146.67 11.49 133.52
  Q 11.50 133.41 11.42 132.49
  Q 11.22 130.18 14.92 131.01
  C 15.26 131.09 15.50 131.41 15.51 131.77
  L 15.79 156.43
  C 15.80 156.71 16.03 156.94 16.31 156.95
  Z"
/>
<rect fill="#000000" x="-1.88" y="-2.13" transform="translate(36.13,132.88) rotate(-0.9)" width="3.76" height="4.26" rx="0.60"/>
<path fill="#000000" d="
  M 47.63 140.85
  Q 50.81 137.54 55.94 138.78
  Q 58.23 139.33 59.52 141.00
  Q 60.47 142.22 60.70 144.75
  Q 61.38 152.27 60.85 159.82
  C 60.82 160.17 60.59 160.44 60.33 160.43
  L 57.76 160.32
  C 57.46 160.30 57.22 160.03 57.23 159.69
  Q 57.39 151.99 57.00 145.25
  Q 56.83 142.25 53.23 141.96
  Q 49.76 141.69 48.20 144.00
  Q 47.29 145.33 47.09 148.70
  Q 46.62 156.74 47.00 158.50
  Q 47.56 161.06 43.84 160.25
  C 43.50 160.17 43.25 159.87 43.25 159.52
  L 43.25 140.75
  C 43.25 140.09 44.07 139.36 45.25 139.00
  Q 46.49 138.61 46.96 140.67
  Q 47.12 141.39 47.63 140.85
  Z"
/>
<path fill="#000000" d="
  M 69.30 151.32
  Q 69.26 157.08 74.56 157.94
  Q 78.92 158.65 80.87 154.28
  C 81.01 153.97 81.26 153.74 81.54 153.68
  Q 83.07 153.35 84.35 154.20
  C 84.59 154.36 84.69 154.68 84.57 154.97
  Q 81.70 162.15 74.00 161.00
  Q 64.73 159.61 65.10 149.49
  Q 65.42 140.90 72.10 139.02
  Q 77.07 137.62 81.02 140.40
  Q 85.40 143.49 84.86 150.06
  C 84.84 150.35 84.60 150.57 84.31 150.58
  L 69.81 150.82
  C 69.53 150.82 69.30 151.04 69.30 151.32
  Z
  M 76.71 141.88
  Q 71.82 140.65 69.37 146.03
  C 69.22 146.35 69.25 146.73 69.45 147.03
  C 69.65 147.33 69.99 147.51 70.35 147.52
  L 80.16 147.67
  C 80.67 147.68 81.07 147.24 81.00 146.76
  Q 80.73 144.86 79.59 143.55
  Q 78.54 142.35 76.71 141.88
  Z"
/>
<rect fill="#000000" x="34.25" y="139.00" width="3.76" height="21.50" rx="0.59"/>
<path fill="#8393ca" d="
  M 98.00 172.04
  Q 90.95 179.86 80.00 190.50
  Q 58.85 211.06 32.96 238.25
  Q 23.48 247.88 14.13 257.63
  Q 10.87 261.03 14.12 257.86
  Q 23.78 248.42 33.25 238.79
  Q 54.31 217.66 75.27 196.42
  Q 75.31 196.38 84.43 186.79
  Q 91.77 179.07 99.96 172.25
  L 100.00 270.13
  C 100.00 270.61 99.61 271.00 99.13 271.00
  L 1.93 271.00
  C 1.42 271.00 1.00 270.58 1.00 270.07
  L 1.00 172.64
  C 1.00 172.29 1.29 172.00 1.64 172.00
  L 98.00 172.04
  Z"
/>
<path fill="#000000" d="
  M 124.54 198.86
  Q 125.21 196.70 123.48 195.07
  Q 122.51 194.14 120.25 193.45
  Q 116.49 192.30 112.68 191.35
  Q 109.47 190.56 107.64 188.22
  Q 105.86 185.95 106.21 182.92
  Q 106.79 177.87 112.50 176.25
  Q 115.96 175.28 119.53 175.84
  Q 126.31 176.91 127.66 183.51
  C 127.73 183.85 127.64 184.18 127.42 184.37
  Q 126.62 185.11 125.25 184.75
  C 124.43 184.54 123.81 184.23 123.75 184.00
  Q 122.43 179.17 117.25 179.25
  Q 114.10 179.30 112.09 180.40
  Q 110.22 181.43 110.01 183.40
  Q 109.82 185.16 111.24 186.27
  Q 112.00 186.86 113.92 187.37
  Q 122.37 189.60 124.19 190.56
  Q 127.04 192.08 128.13 194.81
  Q 129.11 197.28 127.92 200.15
  Q 125.73 205.45 120.26 206.30
  Q 115.31 207.07 111.20 205.43
  Q 106.46 203.53 104.97 197.63
  C 104.87 197.23 105.06 196.81 105.44 196.64
  Q 108.55 195.23 109.11 197.72
  Q 109.61 199.95 111.56 201.14
  Q 116.45 204.10 121.35 202.04
  Q 123.88 200.98 124.54 198.86
  Z"
/>
<path fill="#000000" d="
  M 146.52 204.60
  Q 141.75 207.78 137.63 205.50
  Q 134.31 203.65 132.82 199.32
  Q 131.28 194.81 132.87 190.32
  Q 134.42 185.98 138.08 184.45
  Q 142.52 182.59 146.91 186.44
  C 147.16 186.66 147.48 186.71 147.66 186.55
  Q 147.89 186.35 147.75 186.00
  Q 146.83 183.70 150.25 184.41
  C 150.54 184.47 150.75 184.72 150.75 185.02
  L 150.75 213.29
  C 150.75 213.65 150.50 213.96 150.15 214.03
  Q 147.59 214.53 147.08 213.43
  Q 147.00 213.26 147.01 211.04
  Q 147.03 207.93 146.95 204.81
  Q 146.94 204.32 146.52 204.60
  Z
  M 141.9374 203.4363
  C 145.15 203.34 147.64 199.53 147.5074 194.9273
  C 147.37 190.32 144.66 186.67 141.4426 186.7637
  C 138.23 186.86 135.74 190.67 135.8726 195.2727
  C 136.01 199.88 138.72 203.53 141.9374 203.4363
  Z"
/>
<path fill="#000000" d="
  M 193.51 204.17
  C 193.48 204.03 193.38 203.91 193.25 203.86
  C 193.12 203.80 192.97 203.81 192.85 203.89
  Q 187.36 207.43 182.52 205.85
  Q 179.79 204.95 178.68 202.35
  Q 177.29 199.08 179.47 196.54
  Q 181.08 194.67 185.19 193.78
  Q 188.74 193.02 192.32 192.40
  C 192.63 192.35 192.88 192.12 192.96 191.83
  Q 193.80 188.65 190.81 187.44
  Q 185.19 185.16 182.53 190.36
  C 182.37 190.67 182.10 190.87 181.81 190.91
  Q 180.56 191.09 179.44 190.51
  C 179.17 190.37 179.03 190.06 179.10 189.76
  Q 179.96 186.12 183.01 184.87
  Q 185.13 184.00 188.54 183.86
  Q 191.60 183.74 194.19 185.06
  Q 196.18 186.08 196.63 188.16
  Q 196.65 188.23 196.91 191.84
  Q 197.16 195.37 197.00 198.25
  Q 196.79 202.01 197.62 205.26
  C 197.69 205.55 197.55 205.84 197.29 205.93
  Q 194.12 207.09 193.51 204.17
  Z
  M 185.85 203.32
  Q 192.48 203.92 193.24 196.12
  C 193.26 195.92 193.18 195.72 193.04 195.59
  C 192.89 195.46 192.68 195.41 192.49 195.45
  Q 189.38 196.15 186.79 196.67
  Q 184.19 197.20 183.11 198.13
  Q 181.16 199.80 182.96 201.91
  Q 184.03 203.16 185.85 203.32
  Z"
/>
<path fill="#000000" d="
  M 208.20 188.26
  Q 206.34 189.87 206.29 192.10
  L 206.02 205.14
  C 206.01 205.45 205.80 205.72 205.52 205.78
  Q 202.26 206.49 202.43 204.43
  Q 202.50 203.65 202.50 203.56
  Q 202.46 194.31 202.56 185.06
  C 202.56 184.75 202.74 184.48 203.02 184.37
  Q 206.04 183.23 205.63 186.07
  C 205.59 186.36 205.65 186.62 205.80 186.74
  Q 206.05 186.94 206.31 186.56
  Q 209.10 182.48 213.37 184.69
  C 213.67 184.85 213.86 185.13 213.87 185.43
  Q 213.87 186.51 212.95 187.84
  C 212.75 188.13 212.38 188.24 212.06 188.11
  Q 209.52 187.11 208.20 188.26
  Z"
/>
<path fill="#000000" d="
  M 234.25 199.65
  C 234.56 199.76 234.70 200.12 234.56 200.42
  Q 231.68 206.57 225.01 206.29
  Q 216.29 205.92 215.07 197.33
  Q 214.04 190.09 218.46 186.41
  Q 222.82 182.79 228.12 184.44
  Q 233.95 186.26 234.87 194.61
  C 234.96 195.36 234.35 196.01 233.58 196.02
  L 219.68 196.16
  C 219.40 196.17 219.18 196.40 219.17 196.68
  Q 219.05 202.05 224.54 203.02
  Q 228.44 203.70 230.19 200.22
  Q 231.09 198.43 234.25 199.65
  Z
  M 228.81 188.44
  Q 222.14 184.41 219.17 191.91
  C 219.08 192.15 219.10 192.43 219.24 192.64
  C 219.38 192.86 219.62 192.98 219.87 192.98
  L 230.32 192.84
  C 230.60 192.84 230.82 192.60 230.81 192.32
  Q 230.75 189.60 228.81 188.44
  Z"
/>
<path fill="#000000" d="
  M 169.27 204.11
  Q 165.29 208.01 159.95 205.53
  Q 158.06 204.65 157.14 202.96
  Q 156.52 201.82 156.41 199.42
  Q 156.11 192.73 156.27 185.32
  C 156.28 184.90 156.58 184.55 156.98 184.47
  Q 160.33 183.76 160.08 186.04
  Q 159.99 186.84 159.99 186.97
  Q 159.73 197.14 160.25 200.00
  Q 160.66 202.25 162.75 202.95
  Q 164.38 203.49 166.25 202.91
  Q 170.06 201.72 170.04 197.00
  Q 170.00 190.88 170.00 185.35
  C 170.00 184.93 170.29 184.57 170.70 184.48
  Q 173.31 183.91 173.74 185.09
  Q 173.75 185.12 173.75 187.43
  Q 173.75 195.47 173.75 203.51
  Q 173.75 203.60 173.83 204.49
  Q 174.00 206.49 171.26 205.89
  C 170.68 205.76 170.35 205.14 170.57 204.59
  Q 171.34 202.64 169.91 203.57
  Q 169.65 203.74 169.27 204.11
  Z"
/>
<path fill="#73262a" d="
  M 32.96 238.25
  Q 32.91 238.62 33.25 238.79
  Q 23.78 248.42 14.12 257.86
  Q 10.87 261.03 14.13 257.63
  Q 23.48 247.88 32.96 238.25
  Z"
/>
</svg>
